<svg xmlns="http://www.w3.org/2000/svg" width="32" height="32">
<circle cx="10.5" cy="27.5" r="2.5"/>
<circle cx="23.5" cy="27.5" r="2.5"/>
<path d="M26.4,21H11.2C10,21,9,20.2,8.8,19.1L5.4,4.8C5.3,4.3,4.9,4,4.4,4H1C0.4,4,0,3.6,0,3s0.4-1,1-1h3.4C5.8,2,7,3,7.3,4.3
	l3.4,14.3c0.1,0.2,0.3,0.4,0.5,0.4h15.2c0.2,0,0.4-0.1,0.5-0.4l3.1-10c0.1-0.2,0-0.4-0.1-0.4C29.8,8.1,29.7,8,29.5,8H14
	c-0.6,0-1-0.4-1-1s0.4-1,1-1h15.5c0.8,0,1.5,0.4,2,1c0.5,0.6,0.6,1.5,0.4,2.2l-3.1,10C28.5,20.3,27.5,21,26.4,21z"/>
</svg>
