<svg xmlns="http://www.w3.org/2000/svg" width="48" height="48" viewBox="0 0 48 48">
<path d="M44.6,26.9l-1.2-5c0.3-0.1,0.6-0.4,0.6-0.7v-0.8c0-1.7-1.4-3.2-3.2-3.2h-5.7v-1.7c0-0.9-0.7-1.6-1.6-1.6H23.1l6.4-2.6
	c0.4-0.2,0.6-0.6,0.4-1c-0.2-0.4-0.6-0.6-1-0.4l-5.2,2.1c1.6-1,3.2-2.2,3.8-2.9c1.2-1.5,0.9-3.7-0.7-4.9c-1.5-1.2-3.7-0.9-4.9,0.7
	l0,0c-0.9,1.1-2,4.3-2.7,6.5c-0.7-2.2-1.9-5.4-2.7-6.5l0,0c-1.2-1.5-3.4-1.8-4.9-0.7C10,5.5,9.7,7.7,10.9,9.2
	c0.6,0.8,2.2,1.9,3.8,2.9l-5.2-2.1c-0.4-0.2-0.8,0-1,0.4c-0.2,0.4,0,0.8,0.4,1l6.4,2.6H4.8c-0.9,0-1.6,0.7-1.6,1.6v13.6
	C3.2,29.6,3.5,30,4,30c0.4,0,0.8-0.3,0.8-0.8V15.6c0,0,0,0,0,0h28.9c0,0,0,0,0,0v13.6c0,0.4,0.3,0.8,0.8,0.8c0.4,0,0.8-0.3,0.8-0.8
	v-0.9H44c0,0,0,0,0,0c0,0,0,0,0,0c1.1,0,2,0.7,2.3,1.7H44c-0.4,0-0.8,0.3-0.8,0.8v1.6c0,1.3,1.1,2.4,2.4,2.4h0.9v3.3h-2
	c-0.6-1.9-2.4-3.2-4.5-3.2c-2.1,0-3.9,1.3-4.5,3.2h-0.4v-5.7c0-0.4-0.3-0.8-0.8-0.8c-0.4,0-0.8,0.3-0.8,0.8v5.7H18.1
	c-0.6-1.9-2.4-3.2-4.5-3.2c-2.1,0-3.9,1.3-4.5,3.2H4.8c0,0,0,0,0,0v-1.7H8c0.4,0,0.8-0.3,0.8-0.8S8.4,34.9,8,34.9H0.8
	c-0.4,0-0.8,0.3-0.8,0.8s0.3,0.8,0.8,0.8h2.5V38c0,0.9,0.7,1.6,1.6,1.6h4.1c0,0,0,0,0,0c0,2.6,2.1,4.8,4.8,4.8s4.8-2.1,4.8-4.8
	c0,0,0,0,0,0h16.9c0,0,0,0,0,0c0,2.6,2.1,4.8,4.8,4.8s4.8-2.1,4.8-4.8c0,0,0,0,0,0h2.5c0.4,0,0.8-0.3,0.8-0.8v-8
	C48,28.8,46.5,27.2,44.6,26.9z M23.1,5.9L23.1,5.9c0.7-0.9,1.9-1,2.8-0.4s1,1.9,0.4,2.8c-0.3,0.3-1.1,1.2-4.1,3
	c-0.6,0.4-1.2,0.7-1.7,1C21.2,10.1,22.4,6.9,23.1,5.9z M12.1,8.3c-0.7-0.9-0.5-2.1,0.4-2.8c0.4-0.3,0.8-0.4,1.2-0.4
	c0.6,0,1.2,0.3,1.6,0.8l0,0c0.7,1,1.9,4.2,2.6,6.5c-0.5-0.3-1.1-0.6-1.7-1C13.2,9.5,12.4,8.7,12.1,8.3z M35.2,21.9h6.7l1.2,4.9h-7.9
	V21.9z M40.8,18.7c0.9,0,1.7,0.7,1.7,1.7v0h-7.3v-1.7L40.8,18.7L40.8,18.7z M13.6,42.9c-1.8,0-3.3-1.5-3.3-3.3s1.5-3.3,3.3-3.3
	s3.3,1.5,3.3,3.3S15.4,42.9,13.6,42.9z M40,42.9c-1.8,0-3.3-1.5-3.3-3.3s1.5-3.3,3.3-3.3s3.3,1.5,3.3,3.3S41.8,42.9,40,42.9z
	 M45.6,33.3c-0.5,0-0.9-0.4-0.9-0.9v-0.9h1.7v1.7L45.6,33.3L45.6,33.3z"/>
<path d="M13.6,38.1c-0.9,0-1.6,0.7-1.6,1.6s0.7,1.6,1.6,1.6s1.6-0.7,1.6-1.6S14.4,38.1,13.6,38.1z"/>
<path d="M40,38.1c-0.9,0-1.6,0.7-1.6,1.6s0.7,1.6,1.6,1.6c0.9,0,1.6-0.7,1.6-1.6S40.9,38.1,40,38.1z"/>
<path d="M19.2,35.6c0,0.4,0.3,0.8,0.8,0.8h11.2c0.4,0,0.8-0.3,0.8-0.8s-0.3-0.8-0.8-0.8H20C19.6,34.9,19.2,35.2,19.2,35.6z"/>
<path d="M2.4,33.2H12c0.4,0,0.8-0.3,0.8-0.8s-0.3-0.8-0.8-0.8H2.4c-0.4,0-0.8,0.3-0.8,0.8S1.9,33.2,2.4,33.2z"/>
<path d="M12,21.9c0.4,0,0.8-0.3,0.8-0.8s-0.3-0.8-0.8-0.8H8.8c-0.4,0-0.8,0.3-0.8,0.8v6.4c0,0.4,0.3,0.8,0.8,0.8
	c0.4,0,0.8-0.3,0.8-0.8v-2.5h1.7c0.4,0,0.8-0.3,0.8-0.8s-0.3-0.8-0.8-0.8H9.5v-1.7L12,21.9L12,21.9z"/>
<path d="M19.1,23.2c0-1.5-1.2-2.8-2.8-2.8h-2c-0.4,0-0.8,0.3-0.8,0.8v6.4c0,0.4,0.3,0.8,0.8,0.8c0.4,0,0.8-0.3,0.8-0.8V26h1.3
	l1.4,2.1c0.1,0.2,0.4,0.3,0.6,0.3c0.1,0,0.3,0,0.4-0.1c0.3-0.2,0.4-0.7,0.2-1l-1.1-1.7C18.6,25,19.1,24.2,19.1,23.2z M15.1,21.9h1.3
	c0.7,0,1.3,0.6,1.3,1.3s-0.6,1.3-1.3,1.3h-1.3V21.9z"/>
<path d="M24,21.9c0.4,0,0.8-0.3,0.8-0.8s-0.3-0.8-0.8-0.8h-3.2c-0.4,0-0.8,0.3-0.8,0.8v6.4c0,0.4,0.3,0.8,0.8,0.8H24
	c0.4,0,0.8-0.3,0.8-0.8s-0.3-0.8-0.8-0.8h-2.5v-1.7c0,0,0,0,0,0h1.6c0.4,0,0.8-0.3,0.8-0.8s-0.3-0.8-0.8-0.8h-1.6c0,0,0,0,0,0v-1.7
	L24,21.9L24,21.9z"/>
<path d="M29.6,21.9c0.4,0,0.8-0.3,0.8-0.8s-0.3-0.8-0.8-0.8h-3.2c-0.4,0-0.8,0.3-0.8,0.8v6.4c0,0.4,0.3,0.8,0.8,0.8h3.2
	c0.4,0,0.8-0.3,0.8-0.8s-0.3-0.8-0.8-0.8h-2.5v-1.7H28c0.4,0,0.8-0.3,0.8-0.8s-0.3-0.8-0.8-0.8h-0.9v-1.7L29.6,21.9L29.6,21.9z"/>
</svg>
