<svg xmlns="http://www.w3.org/2000/svg" width="48" height="48" viewBox="0 0 48 48">
<path d="M30,34.4H2.5c-0.5,0-0.9-0.4-0.9-0.9V7.7c0-0.5,0.4-0.9,0.9-0.9H42c0.5,0,0.9,0.4,0.9,0.9v11.2c0,0.4,0.4,0.8,0.8,0.8
	c0.4,0,0.8-0.4,0.8-0.8V7.7c0-1.4-1.1-2.5-2.5-2.5H2.5C1.1,5.2,0,6.3,0,7.7v25.8C0,34.8,1.1,36,2.5,36H30c0.4,0,0.8-0.4,0.8-0.8
	C30.8,34.7,30.5,34.4,30,34.4z"/>
<path d="M15.4,18v-5.2c0-0.9-0.7-1.7-1.7-1.7H6.8c-0.9,0-1.7,0.7-1.7,1.7V18c0,0.9,0.7,1.7,1.7,1.7h6.9C14.6,19.7,15.4,18.9,15.4,18
	z M13.7,12.8V18c0,0,0,0.1-0.1,0.1h-3.5v-1.8h0.9c0.4,0,0.8-0.4,0.8-0.8c0-0.4-0.4-0.8-0.8-0.8h-0.9v-1.8L13.7,12.8
	C13.7,12.8,13.7,12.8,13.7,12.8z M6.8,18v-5.2c0,0,0-0.1,0.1-0.1h1.8V18L6.8,18C6.8,18,6.8,18,6.8,18z"/>
<path d="M32.2,11.1c-0.8-0.5-1.7-0.8-2.6-0.8c-2.6,0-4.7,2.1-4.7,4.7s2.1,4.7,4.7,4.7c1,0,1.8-0.3,2.6-0.8c0.8,0.5,1.7,0.8,2.6,0.8
	c2.6,0,4.7-2.1,4.7-4.7s-2.1-4.7-4.7-4.7C33.8,10.3,32.9,10.6,32.2,11.1z M26.5,15c0-1.7,1.4-3.1,3.1-3.1c0.5,0,0.9,0.1,1.4,0.3
	C30.4,13,30.1,14,30.1,15c0,1,0.3,1.9,0.9,2.7c-0.4,0.2-0.9,0.3-1.4,0.3C27.9,18,26.5,16.7,26.5,15z M37.8,15c0,1.7-1.4,3.1-3.1,3.1
	c-0.5,0-0.9-0.1-1.4-0.3c0.6-0.8,0.9-1.7,0.9-2.7c0-0.4-0.4-0.8-0.8-0.8s-0.8,0.4-0.8,0.8c0,0.6-0.2,1.2-0.5,1.6
	c-0.3-0.5-0.5-1.1-0.5-1.6c0-1.7,1.4-3.1,3.1-3.1C36.4,11.9,37.8,13.3,37.8,15z"/>
<path d="M6,24.1c-0.4,0-0.8,0.4-0.8,0.8c0,0.4,0.4,0.8,0.8,0.8h6.9c0.4,0,0.8-0.4,0.8-0.8c0-0.4-0.4-0.8-0.8-0.8H6z"/>
<path d="M30.9,29.2H6c-0.4,0-0.8,0.4-0.8,0.8c0,0.4,0.4,0.8,0.8,0.8h24.9c0.4,0,0.8-0.4,0.8-0.8S31.3,29.2,30.9,29.2z"/>
<path d="M16.3,24.1c-0.4,0-0.8,0.4-0.8,0.8c0,0.4,0.4,0.8,0.8,0.8h6.9c0.4,0,0.8-0.4,0.8-0.8c0-0.4-0.4-0.8-0.8-0.8H16.3z"/>
<path d="M31.7,24.1h-5.2c-0.4,0-0.8,0.4-0.8,0.8c0,0.4,0.4,0.8,0.8,0.8h5.2c0.4,0,0.8-0.4,0.8-0.8C32.5,24.4,32.2,24.1,31.7,24.1z"
	/>
<path d="M46.3,30.2v-3.6c0-3.3-2.7-6-6-6c-3.3,0-6,2.7-6,6v3.6c-1,0.3-1.7,1.3-1.7,2.4v7.7c0,1.4,1.1,2.5,2.5,2.5h10.3
	c1.4,0,2.5-1.1,2.5-2.5v-7.7C48,31.5,47.3,30.5,46.3,30.2z M40.3,22.2c2.4,0,4.3,2,4.3,4.3v3.5H36v-3.5C36,24.2,37.9,22.2,40.3,22.2
	z M46.4,40.3c0,0.5-0.4,0.9-0.9,0.9H35.2c-0.5,0-0.9-0.4-0.9-0.9v-7.7c0-0.5,0.4-0.9,0.9-0.9h10.3c0.5,0,0.9,0.4,0.9,0.9V40.3z"/>
<path d="M40.3,33.5c-1.2,0-2.1,0.9-2.1,2.1c0,0.9,0.5,1.6,1.3,1.9v1.1c0,0.4,0.4,0.8,0.8,0.8s0.8-0.4,0.8-0.8v-1.1
	c0.8-0.3,1.3-1.1,1.3-1.9C42.4,34.4,41.5,33.5,40.3,33.5z M40.3,35.1c0.3,0,0.5,0.2,0.5,0.5s-0.2,0.5-0.5,0.5s-0.5-0.2-0.5-0.5
	S40.1,35.1,40.3,35.1z"/>
</svg>
