<svg xmlns="http://www.w3.org/2000/svg" width="48" height="48" viewBox="0 0 48 48">
<path d="M48,3.3c0-0.9-0.3-1.7-1-2.3c-0.6-0.6-1.4-1-2.3-1c-0.9,0-1.7,0.3-2.3,1c-0.3,0.3-0.7,0.8-1,1.1c-0.3,0.3-0.2,0.8,0.1,1.1
	c0.3,0.3,0.8,0.2,1.1-0.1c0.4-0.5,0.7-0.9,0.9-1c0.3-0.3,0.8-0.5,1.2-0.5c0,0,0,0,0,0c0.5,0,0.9,0.2,1.2,0.5
	c0.3,0.3,0.5,0.8,0.5,1.2c0,0.5-0.2,0.9-0.5,1.2c-0.3,0.3-1.3,1.1-2.7,2.1c-0.9-1.5-2.4-2.4-4.3-2.4H27.5c-1.5,0-3,0.6-4.1,1.7
	L0.7,28.6C0.3,29,0,29.7,0,30.3s0.3,1.3,0.7,1.7L16,47.3c0.5,0.5,1.1,0.7,1.7,0.7c0.7,0,1.3-0.3,1.7-0.7l22.8-22.8
	c1.1-1.1,1.7-2.5,1.7-4.1V9.1c0-0.3,0-0.7-0.1-1C45.4,7,46.6,6,47,5.6C47.7,5,48,4.1,48,3.3z M42.3,9.1v11.4c0,1.1-0.4,2.2-1.2,3
	L18.3,46.2c-0.3,0.3-0.9,0.3-1.2,0L1.8,30.9c-0.3-0.3-0.3-0.9,0-1.2L24.6,6.9c0.8-0.8,1.8-1.2,3-1.2h11.4c1.3,0,2.4,0.7,3,1.8
	c-0.9,0.6-1.9,1.3-3,1.9c0,0-0.1-0.1-0.1-0.1c-1.3-1.3-3.3-1.3-4.6,0s-1.3,3.3,0,4.6c0.6,0.6,1.5,1,2.3,1c0.8,0,1.7-0.3,2.3-1
	c0.9-0.9,1.1-2.1,0.8-3.1C40.6,10.2,41.5,9.6,42.3,9.1C42.3,9.1,42.3,9.1,42.3,9.1z M35.7,11.9c0.1,0.3,0.4,0.4,0.7,0.4
	c0.1,0,0.2,0,0.3-0.1c0.5-0.2,0.9-0.5,1.4-0.7c0,0.4-0.2,0.9-0.5,1.2c-0.7,0.7-1.8,0.7-2.4,0c-0.7-0.7-0.7-1.8,0-2.4
	c0.3-0.3,0.8-0.5,1.2-0.5c0.3,0,0.7,0.1,1,0.3c-0.4,0.2-0.9,0.5-1.3,0.7C35.7,11.1,35.6,11.5,35.7,11.9z"/>
<path d="M16.3,25.8c-0.3-0.3-0.8-0.3-1.1,0c-0.3,0.3-0.3,0.8,0,1.1l2.4,2.4l-3,3l-2.4-2.4c-0.3-0.3-0.8-0.3-1.1,0
	c-0.3,0.3-0.3,0.8,0,1.1l5.9,5.9c0.2,0.2,0.4,0.2,0.5,0.2s0.4-0.1,0.5-0.2c0.3-0.3,0.3-0.8,0-1.1l-2.4-2.4l3-3l2.4,2.4
	c0.2,0.2,0.4,0.2,0.5,0.2s0.4-0.1,0.5-0.2c0.3-0.3,0.3-0.8,0-1.1L16.3,25.8z"/>
<path d="M24.8,21.4c-1.4-1.4-3.8-1.4-5.2,0s-1.4,3.8,0,5.2l1.8,1.8c0.7,0.7,1.7,1.1,2.6,1.1s1.9-0.4,2.6-1.1c1.4-1.4,1.4-3.8,0-5.2
	L24.8,21.4z M25.5,27.3c-0.8,0.8-2.2,0.8-3,0l-1.8-1.8c-0.8-0.8-0.8-2.2,0-3c0.4-0.4,1-0.6,1.5-0.6s1.1,0.2,1.5,0.6l1.8,1.8
	C26.3,25.1,26.3,26.5,25.5,27.3z"/>
<path d="M27.4,15.8l1.8-1.8c0.3-0.3,0.3-0.8,0-1.1c-0.3-0.3-0.8-0.3-1.1,0l-4.7,4.7c-0.3,0.3-0.3,0.8,0,1.1c0.2,0.2,0.4,0.2,0.5,0.2
	s0.4-0.1,0.5-0.2l1.8-1.8l5.3,5.3c0.2,0.2,0.4,0.2,0.5,0.2c0.2,0,0.4-0.1,0.5-0.2c0.3-0.3,0.3-0.8,0-1.1L27.4,15.8z"/>
</svg>
